<svg xmlns="http://www.w3.org/2000/svg" viewBox="0 0 374.01 112.18" role="img" aria-label="Perfect">
  <path fill="#0052cc" d="M14.51,25.36v7.56c.32-.32.65-.67.98-1.04.32-.37.69-.71,1.1-1.04,4.15-3.66,9.47-5.49,15.97-5.49,8.7,0,15.93,3.09,21.7,9.27,5.69,6.18,8.54,13.74,8.54,22.68s-2.85,16.5-8.54,22.68c-5.77,6.18-13.01,9.27-21.7,9.27-5.93,0-10.93-1.75-15-5.24-.24-.16-.47-.37-.67-.61s-.43-.49-.67-.73v29.51H0V25.36h14.51ZM31.09,73.16c4.39,0,8.05-1.54,10.98-4.63,2.84-3.09,4.27-6.83,4.27-11.22s-1.42-8.25-4.27-11.34c-2.93-3.01-6.59-4.51-10.98-4.51s-7.84,1.51-10.61,4.51c-2.85,3.09-4.27,6.87-4.27,11.34s1.42,8.13,4.27,11.22c2.76,3.09,6.3,4.63,10.61,4.63Z"/>
  <path fill="#0052cc" d="M84.41,63.41c.4,1.3.99,2.52,1.77,3.66.77,1.14,1.69,2.12,2.74,2.93,2.6,2.03,5.61,3.05,9.02,3.05,5.44,0,9.71-1.54,12.8-4.63l11.34,11.58c-6.1,6.18-14.14,9.27-24.14,9.27-8.78,0-16.3-3.13-22.56-9.39-6.34-6.26-9.51-13.78-9.51-22.56s3.05-16.42,9.15-22.68c5.93-6.18,13.33-9.27,22.19-9.27,8.37,0,15.44,3.09,21.22,9.27,5.53,5.93,8.29,13.49,8.29,22.68v6.1h-42.31ZM88.19,43.77c-1.95,1.79-3.33,3.98-4.15,6.58h24.75c-.81-2.84-2.16-5.12-4.03-6.83-2.12-1.79-4.76-2.68-7.92-2.68-3.33,0-6.22.98-8.66,2.93h0Z"/>
  <path fill="#0052cc" d="M145.99,25.36v9.88c.32-.32.63-.65.91-.97s.59-.65.91-.98c1.95-1.87,4.1-3.41,6.46-4.63,4.15-2.19,8.9-3.29,14.27-3.29v16.22c-5.53,0-10.28,1.63-14.27,4.88-3.9,3.17-6.34,7.68-7.32,13.54v27.8h-16.22V25.36h15.26Z"/>
  <path fill="#0052cc" d="M215.24,0v16.22h-8.66c-2.03,0-3.78.73-5.24,2.2-1.46,1.46-2.2,3.17-2.2,5.12v1.83h16.09v16.22h-16.09v46.21h-16.22v-46.21h-10v-16.22h10v-1.83c0-6.5,2.32-12.03,6.95-16.58C194.42,2.33,199.99.01,206.57.01h8.67Z"/>
  <path fill="#0052cc" d="M233.78,63.41c.4,1.3.99,2.52,1.77,3.66.77,1.14,1.69,2.12,2.74,2.93,2.6,2.03,5.61,3.05,9.02,3.05,5.44,0,9.71-1.54,12.8-4.63l11.34,11.58c-6.1,6.18-14.14,9.27-24.14,9.27-8.78,0-16.3-3.13-22.56-9.39-6.34-6.26-9.51-13.78-9.51-22.56s3.05-16.42,9.15-22.68c5.93-6.18,13.33-9.27,22.19-9.27,8.37,0,15.44,3.09,21.22,9.27,5.53,5.93,8.29,13.49,8.29,22.68v6.1h-42.31ZM237.56,43.77c-1.95,1.79-3.33,3.98-4.15,6.58h24.75c-.81-2.84-2.16-5.12-4.03-6.83-2.12-1.79-4.76-2.68-7.92-2.68-3.33,0-6.22.98-8.66,2.93h0Z"/>
  <path fill="#0052cc" d="M310.59,89.25c-8.86,0-16.3-3.13-22.31-9.39-6.01-6.18-9.02-13.7-9.02-22.56s3.01-16.42,9.02-22.68c6.01-6.18,13.45-9.27,22.31-9.27h16.02v16.03l-16.02.19c-4.31,0-7.89,1.54-10.73,4.63-2.85,3.01-4.27,6.71-4.27,11.1s1.42,8.09,4.27,11.1c2.84,3.09,6.42,4.63,10.73,4.63,0,0,6.6.85,9.02-4.42h16.34c0,12.48-13.92,20.63-25.36,20.63h0Z"/>
  <path fill="#0052cc" d="M358.28,7.8v17.56h15.73v16.22h-15.73v19.02c0,3.01,1.05,5.57,3.17,7.68,2.2,2.2,4.79,3.29,7.8,3.29h4.76v16.22h-4.76c-7.48,0-13.9-2.68-19.27-8.05-5.28-5.28-7.92-11.66-7.92-19.14v-19.02h-11.1v-16.22h11.1V7.8h16.22Z"/>
</svg>
